<svg xmlns="http://www.w3.org/2000/svg" viewBox="0 0 64 64" role="img" aria-labelledby="title">
  <title id="title">Python</title>
  <rect width="64" height="64" rx="14" fill="#edf4fb"/>
  <path d="M32 10c-9.5 0-13 3-13 8.9V25h16v4H17.2C12.5 29 9 32.7 9 38.1 9 43.7 12.7 48 17.2 48h5.2v-7.4c0-5.3 4.5-9.7 9.7-9.7h12.8c4.4 0 8-3.6 8-8V18.9C52.9 13 48.4 10 39 10zm-7.2 5.7a2.7 2.7 0 1 1 0 5.4 2.7 2.7 0 0 1 0-5.4z" fill="#3776ab"/>
  <path d="M31.9 54c9.5 0 13-3 13-8.9V39H29v-4h17.8c4.7 0 8.2-3.7 8.2-9.1 0-5.6-3.7-9.9-8.2-9.9h-5.2v7.4c0 5.3-4.5 9.7-9.7 9.7H19.1c-4.4 0-8 3.6-8 8v4.1c0 5.8 4.5 8.8 14 8.8zm7.2-5.7a2.7 2.7 0 1 1 0-5.4 2.7 2.7 0 0 1 0 5.4z" fill="#ffd43b"/>
</svg>
